<?xml version="1.0" ?><svg viewBox="0 0 512 512" xmlns="http://www.w3.org/2000/svg"><defs><style>.cls-1{fill:#202d40;}.cls-2{fill:#bdc3c8;}.cls-3{fill:#0b0d20;}.cls-4{fill:#c0402b;}</style></defs><title/><g id="Google"><g id="Gforms"><path class="cls-1" d="M413.89,157.42V445.91A28.09,28.09,0,0,1,385.8,474H126.2a28.08,28.08,0,0,1-28.09-28.09V66.09A28.08,28.08,0,0,1,126.2,38H294.47Z"/><ellipse class="cls-2" cx="182.5" cy="272.26" rx="10.5" ry="11.34"/><ellipse class="cls-2" cx="182.5" cy="317.61" rx="10.5" ry="11.34"/><ellipse class="cls-2" cx="182.5" cy="362.96" rx="10.5" ry="11.34"/><path class="cls-2" d="M329.5,374.3h-105c-5.8,0-10.5-5.08-10.5-11.34s4.7-11.34,10.5-11.34h105c5.8,0,10.5,5.08,10.5,11.34S335.3,374.3,329.5,374.3Z"/><path class="cls-2" d="M329.5,329h-105c-5.8,0-10.5-5.08-10.5-11.34s4.7-11.34,10.5-11.34h105c5.8,0,10.5,5.08,10.5,11.34S335.3,329,329.5,329Z"/><path class="cls-2" d="M329.5,283.59h-105c-5.8,0-10.5-5.07-10.5-11.33s4.7-11.34,10.5-11.34h105c5.8,0,10.5,5.08,10.5,11.34S335.3,283.59,329.5,283.59Z"/><polygon class="cls-3" points="310.76 154.82 413.89 197.31 413.89 157.42 355.42 140.16 310.76 154.82"/><path class="cls-4" d="M413.89,157.42H322.56a28.08,28.08,0,0,1-28.09-28.09V38Z"/></g></g></svg>