<svg xmlns="http://www.w3.org/2000/svg" width="53.4" height="61.739" viewBox="0 0 53.4 61.739">
    <g data-name="freepik--speech-bubble--inject-27">
        <g data-name="freepik--speech-bubble--inject-27">
           <path data-name="Path 903" d="M455.52 155.1a24.3 24.3 0 1 1-24.32-24.27 24.3 24.3 0 0 1 24.32 24.27z" style="fill:#fff" transform="translate(-404.52 -128.43)"/>
        </g>
        <path data-name="Path 905" d="M446.37 152.55a.38.38 0 0 0-.32-.31l-2.81-.33a1.75 1.75 0 0 1-1.43-1.12A1.79 1.79 0 0 1 442 149l1.77-2.21a.37.37 0 0 0 0-.45 14.612 14.612 0 0 0-1.68-2 15.767 15.767 0 0 0-2-1.71.36.36 0 0 0-.44 0l-2.22 1.75a1.78 1.78 0 0 1-1.78.23h-.06a1.77 1.77 0 0 1-1.11-1.43l-.31-2.81a.38.38 0 0 0-.31-.32 14.82 14.82 0 0 0-5.23 0 .37.37 0 0 0-.3.32l-.33 2.81a1.83 1.83 0 0 1-1.13 1.43 1.81 1.81 0 0 1-1.8-.23l-2.21-1.77a.38.38 0 0 0-.44 0 15.2 15.2 0 0 0-3.72 3.7.36.36 0 0 0 0 .44l1.75 2.22a1.78 1.78 0 0 1 .23 1.8 1.83 1.83 0 0 1-1.45 1.12l-2.8.31a.38.38 0 0 0-.32.31 14.589 14.589 0 0 0 0 5.23.35.35 0 0 0 .32.3l2.8.33a1.78 1.78 0 0 1 1.42 1.12 1.77 1.77 0 0 1-.23 1.78l-1.77 2.23a.35.35 0 0 0 0 .43 15.005 15.005 0 0 0 1.68 2 15.708 15.708 0 0 0 2 1.69.35.35 0 0 0 .44 0l2.23-1.75a1.81 1.81 0 0 1 1.8-.22 1.77 1.77 0 0 1 1.12 1.43l.32 2.81a.37.37 0 0 0 .3.32 14.65 14.65 0 0 0 5.24 0 .36.36 0 0 0 .3-.32l.32-2.8a1.8 1.8 0 0 1 1.13-1.43 1.79 1.79 0 0 1 1.79.23l2.21 1.77a.37.37 0 0 0 .45 0 15.57 15.57 0 0 0 2-1.68 16.626 16.626 0 0 0 1.7-2 .38.38 0 0 0 0-.44l-1.68-2.2a1.77 1.77 0 0 1-.23-1.79 1.77 1.77 0 0 1 1.44-1.12l2.81-.32a.36.36 0 0 0 .32-.3 15.06 15.06 0 0 0 .03-5.26zm-9.37 8.37a8.19 8.19 0 1 1 0-11.56 8.19 8.19 0 0 1 0 11.56z" style="fill:#b8405e" transform="translate(-404.52 -128.43)"/>
    </g>
</svg>
